<svg width="24" height="24" viewBox="0 0 24 24" fill="none" xmlns="http://www.w3.org/2000/svg">
<path fill-rule="evenodd" clip-rule="evenodd" d="M10.0324 4.11852C9.64573 3.73163 9.05484 3.63565 8.5656 3.88028C8.14402 4.09107 7.87378 4.51794 7.8636 4.98917L7.86103 5.10736C7.86103 5.10735 7.86103 5.10737 7.86103 5.10736C7.82844 6.61398 6.59759 7.81828 5.09064 7.81797C5.09057 7.81797 5.09071 7.81797 5.09064 7.81797H5.03594C4.48895 7.81783 4.00306 8.16779 3.83009 8.68672C3.68104 9.13388 3.79179 9.62681 4.1178 9.96723L4.1996 10.0526C5.24194 11.1411 5.22308 12.8631 4.15714 13.9284L4.11847 13.9671C3.73161 14.3538 3.63567 14.9447 3.8803 15.4339C4.09108 15.8555 4.51797 16.1258 4.98922 16.1359L5.10741 16.1385C6.61405 16.1711 7.81832 17.4019 7.81802 18.9089C7.81802 18.9088 7.81802 18.909 7.81802 18.9089V18.9636C7.81787 19.5106 8.16784 19.9965 8.68676 20.1694C9.13393 20.3185 9.62686 20.2077 9.96727 19.8817L10.0526 19.8C11.1411 18.7576 12.8631 18.7764 13.9285 19.8424L13.9671 19.8811C14.3538 20.268 14.9447 20.364 15.4339 20.1193C15.8555 19.9085 16.1258 19.4817 16.136 19.0104L16.1385 18.8922C16.1385 18.8922 16.1385 18.8922 16.1385 18.8922C16.1711 17.3856 17.402 16.1813 18.9089 16.1816C18.9089 16.1816 18.909 16.1816 18.9089 16.1816H18.9636C19.5106 16.1818 19.9965 15.8318 20.1695 15.3129C20.3185 14.8657 20.2078 14.3728 19.8818 14.0324L19.8 13.947C18.7576 12.8586 18.7765 11.1365 19.8424 10.0712L19.8811 10.0325C19.8811 10.0325 19.8811 10.0325 19.8811 10.0325C20.268 9.64584 20.364 9.05492 20.1194 8.5657C19.9086 8.1441 19.4817 7.87384 19.0105 7.86365L18.8923 7.86109C18.8923 7.86109 18.8923 7.86109 18.8923 7.86109C17.3856 7.8285 16.1813 6.59765 16.1816 5.09069C16.1816 5.09062 16.1816 5.09076 16.1816 5.09069V5.03597C16.1818 4.49037 15.8336 4.00558 15.3169 3.83146C15.3155 3.83102 15.3142 3.83057 15.3128 3.83012C14.8656 3.68105 14.3727 3.79181 14.0322 4.11785C14.0322 4.11785 14.0323 4.11785 14.0322 4.11785L13.9469 4.19955C12.8585 5.24195 11.1365 5.22316 10.0711 4.15725C10.0711 4.15723 10.0712 4.15728 10.0711 4.15725L10.0324 4.11852ZM21.461 7.89488C21.9944 8.96175 21.7852 10.2503 20.9415 11.0935L20.9028 11.1321C20.9028 11.1322 20.9028 11.1321 20.9028 11.1321C20.414 11.6207 20.4053 12.4104 20.8834 12.9095L20.9651 12.9949C21.676 13.7372 21.9175 14.8121 21.5925 15.7872C21.2153 16.9187 20.1563 17.6818 18.9636 17.6816C18.9636 17.6816 18.9637 17.6816 18.9636 17.6816H18.9089C18.2178 17.6814 17.6531 18.2337 17.6382 18.9246L17.6356 19.0428C17.6356 19.0428 17.6356 19.0428 17.6356 19.0428C17.6134 20.0704 17.0241 21.0013 16.1048 21.461C15.0379 21.9944 13.7494 21.7851 12.9062 20.9415L12.8675 20.9028C12.3789 20.4139 11.5892 20.4053 11.0901 20.8833L11.0048 20.965C10.2624 21.676 9.18754 21.9175 8.21243 21.5925C7.08091 21.2153 6.31778 20.1563 6.31802 18.9636C6.31802 18.9635 6.31802 18.9637 6.31802 18.9636V18.9089C6.31821 18.2178 5.76593 17.6531 5.07499 17.6382L4.9568 17.6356C3.92919 17.6134 2.99833 17.0241 2.53867 16.1047M21.461 7.89488C21.0014 6.97554 20.0705 6.38623 19.0429 6.364C19.0429 6.364 19.0429 6.364 19.0429 6.364L18.9247 6.36144C18.2338 6.3465 17.6815 5.782 17.6816 5.0909V5.03616C17.6816 5.0361 17.6816 5.03623 17.6816 5.03616C17.6819 3.84346 16.9188 2.78427 15.7872 2.40711C15.7853 2.40645 15.7833 2.4058 15.7813 2.40516C14.8077 2.083 13.7356 2.325 12.9947 3.03456L12.9094 3.11626C12.4103 3.59429 11.6206 3.58565 11.132 3.09681L11.0934 3.05815C11.0933 3.05813 11.0934 3.05818 11.0934 3.05815C10.2502 2.21455 8.9616 2.00522 7.89477 2.53864C6.97546 2.9983 6.38617 3.92913 6.36395 4.95671C6.36395 4.9567 6.36395 4.95673 6.36395 4.95671L6.36138 5.0749C6.34645 5.76585 5.78195 6.31816 5.09084 6.31797H5.03615C5.03608 6.31797 5.03622 6.31797 5.03615 6.31797C3.84344 6.31774 2.78423 7.08086 2.40706 8.21238C2.08204 9.18748 2.32355 10.2624 3.03445 11.0047L3.11623 11.0901C3.59423 11.5892 3.5856 12.3789 3.09677 12.8675L3.05806 12.9062C2.21448 13.7494 2.00525 15.0379 2.53867 16.1047" fill="white"/>
<path fill-rule="evenodd" clip-rule="evenodd" d="M11.9991 10.249C11.032 10.249 10.248 11.033 10.248 12.0001C10.248 12.9671 11.032 13.7511 11.9991 13.7511C12.9662 13.7511 13.7501 12.9671 13.7501 12.0001C13.7501 11.033 12.9662 10.249 11.9991 10.249ZM8.74805 12.0001C8.74805 10.2046 10.2036 8.74902 11.9991 8.74902C13.7946 8.74902 15.2501 10.2046 15.2501 12.0001C15.2501 13.7956 13.7946 15.2511 11.9991 15.2511C10.2036 15.2511 8.74805 13.7956 8.74805 12.0001Z" fill="white"/>
</svg>
