<svg width="240" height="34" viewBox="0 0 240 34" fill="none" xmlns="http://www.w3.org/2000/svg">
<path d="M0 33.5156V0H14.2969C20.6719 0 23.8594 2.60156 23.8594 7.80469C23.8594 11.6172 21.7812 14.3438 17.625 15.9844C22.0625 16.8125 24.2812 19.3516 24.2812 23.6016C24.2812 30.2109 20.7891 33.5156 13.8047 33.5156H0ZM13.5469 30C17.5469 30 19.5469 27.9688 19.5469 23.9062C19.5469 19.9531 16.8672 17.9766 11.5078 17.9766H9.63281V15.1406C16.0391 14.2812 19.2422 11.9688 19.2422 8.20312C19.2422 5.07812 17.4609 3.51562 13.8984 3.51562H4.33594V30H13.5469ZM30.7031 33.5156V8.90625H33.6328L34.4062 12.0469C36.5625 9.95312 39.1562 8.90625 42.1875 8.90625V12.5156C39.25 12.5156 36.8672 13.5547 35.0391 15.6328V33.5156H30.7031ZM45.375 26.0859C45.375 21.0391 48.7031 18.5156 55.3594 18.5156C57.5 18.5156 59.6406 18.6719 61.7812 18.9844V16.6641C61.7812 13.8359 59.5703 12.4219 55.1484 12.4219C52.6172 12.4219 50.0234 12.8125 47.3672 13.5938V10.0781C50.0234 9.29688 52.6172 8.90625 55.1484 8.90625C62.4609 8.90625 66.1172 11.4531 66.1172 16.5469V33.5156H63.6797L62.1797 31.0781C59.7266 32.7031 57.0547 33.5156 54.1641 33.5156C48.3047 33.5156 45.375 31.0391 45.375 26.0859ZM55.3594 22.0312C51.5938 22.0312 49.7109 23.3594 49.7109 26.0156C49.7109 28.6719 51.1953 30 54.1641 30C57.1641 30 59.7031 29.2031 61.7812 27.6094V22.5C59.6406 22.1875 57.5 22.0312 55.3594 22.0312ZM73.1719 33.5156V8.90625H76.1016L76.875 12.0469C79.3906 9.95312 82.1562 8.90625 85.1719 8.90625C91.3125 8.90625 94.3828 11.9609 94.3828 18.0703V33.5156H90.0469V18C90.0469 14.3438 88.2266 12.5156 84.5859 12.5156C82.1016 12.5156 79.7422 13.5547 77.5078 15.6328V33.5156H73.1719ZM117.961 13.9219C116.211 13.0781 114.211 12.6562 111.961 12.6562C107.008 12.6562 104.531 15.2891 104.531 20.5547C104.531 26.7891 107.008 29.9062 111.961 29.9062C114.211 29.9062 116.211 29.6016 117.961 28.9922V13.9219ZM122.297 32.0391C119.312 33.0234 115.633 33.5156 111.258 33.5156C103.93 33.5156 100.266 29.25 100.266 20.7188C100.266 12.8438 104.156 8.90625 111.938 8.90625C114.062 8.90625 116.07 9.29688 117.961 10.0781V0H122.297V32.0391ZM129.797 33.5156V0H144.094C150.469 0 153.656 2.60156 153.656 7.80469C153.656 11.6172 151.578 14.3438 147.422 15.9844C151.859 16.8125 154.078 19.3516 154.078 23.6016C154.078 30.2109 150.586 33.5156 143.602 33.5156H129.797ZM143.344 30C147.344 30 149.344 27.9688 149.344 23.9062C149.344 19.9531 146.664 17.9766 141.305 17.9766H139.43V15.1406C145.836 14.2812 149.039 11.9688 149.039 8.20312C149.039 5.07812 147.258 3.51562 143.695 3.51562H134.133V30H143.344ZM163.664 21.1172C163.664 27.0391 166.125 30 171.047 30C175.969 30 178.43 27.0391 178.43 21.1172C178.43 15.3203 175.969 12.4219 171.047 12.4219C166.125 12.4219 163.664 15.3203 163.664 21.1172ZM159.328 21.2109C159.328 13.0078 163.234 8.90625 171.047 8.90625C178.859 8.90625 182.766 13.0078 182.766 21.2109C182.766 29.3984 178.859 33.4922 171.047 33.4922C163.266 33.4922 159.359 29.3984 159.328 21.2109ZM191.789 21.1172C191.789 27.0391 194.25 30 199.172 30C204.094 30 206.555 27.0391 206.555 21.1172C206.555 15.3203 204.094 12.4219 199.172 12.4219C194.25 12.4219 191.789 15.3203 191.789 21.1172ZM187.453 21.2109C187.453 13.0078 191.359 8.90625 199.172 8.90625C206.984 8.90625 210.891 13.0078 210.891 21.2109C210.891 29.3984 206.984 33.4922 199.172 33.4922C191.391 33.4922 187.484 29.3984 187.453 21.2109ZM216.75 33.5156V0H221.086V10.8281C223.477 9.54688 226.234 8.90625 229.359 8.90625C235.484 8.90625 238.547 11.2734 238.547 16.0078C238.547 19.4453 236.203 21.8203 231.516 23.1328L239.391 33.5156H233.906L226.078 23.0859V21.1406C231.5 20.6562 234.211 18.9375 234.211 15.9844C234.211 13.6094 232.492 12.4219 229.055 12.4219C226.352 12.4219 223.695 13.1562 221.086 14.625V33.5156H216.75Z" fill="white"/>
</svg>
